<?xml version="1.0" encoding="UTF-8"?><svg id="Layer_1" xmlns="http://www.w3.org/2000/svg" viewBox="0 0 138.93 79.25"><defs><style>.cls-1,.cls-2{fill:#fff;}.cls-2{stroke:#fff;stroke-miterlimit:10;stroke-width:.25px;}</style></defs><path class="cls-2" d="m93.63,67.35v7.92h-1.71l-2.92-5.4v5.4h-1.49v-7.92h1.71l2.92,5.4v-5.4h1.49Z"/><path class="cls-2" d="m100.55,67.35v1.5h-3.6v1.63h2.92v1.5h-2.92v1.8h3.6v1.5h-5.18v-7.92h5.18Z"/><path class="cls-2" d="m105,68.83v6.45h-1.58v-6.45h-2.07v-1.47h5.72v1.47h-2.07Z"/><path class="cls-2" d="m113.67,75.27l-1.3-5.21-1.3,5.21h-1.56l-1.97-7.92h1.69l1.08,5.79,1.43-5.79h1.25l1.43,5.79,1.08-5.79h1.63l-1.97,7.92h-1.5Z"/><path class="cls-2" d="m122.09,67.31c.92,0,1.56.64,1.56,1.56v4.89c0,.92-.64,1.56-1.56,1.56h-2.65c-.92,0-1.56-.64-1.56-1.56v-4.89c0-.92.64-1.56,1.56-1.56h2.65Zm-.02,1.87c0-.24-.13-.37-.37-.37h-1.86c-.24,0-.37.13-.37.37v4.27c0,.24.13.37.37.37h1.86c.24,0,.37-.13.37-.37v-4.27Z"/><path class="cls-2" d="m129.34,75.27l-1.28-2.94h-1.28v2.94h-1.58v-7.92h4.04c.92,0,1.56.64,1.56,1.56v1.86c0,.75-.42,1.31-1.08,1.5l1.32,3h-1.71Zm-.12-6.05c0-.24-.13-.37-.37-.37h-2.06v2.01h2.06c.24,0,.37-.13.37-.37v-1.27Z"/><path class="cls-2" d="m133.92,73.25v2.02h-1.56v-7.92h1.56v3.72l2.74-3.72h1.86l-2.43,3.12,2.55,4.8h-1.78l-1.83-3.44-1.11,1.42Z"/><path class="cls-2" d="m4.05,3.14v6.45h-1.58V3.14H.4v-1.47h5.72v1.47h-2.07Z"/><path class="cls-2" d="m7.26,1.66h1.58v3.12h2.73V1.66h1.58v7.92h-1.58v-3.3h-2.73v3.3h-1.58V1.66Z"/><path class="cls-2" d="m20.08,1.66v1.5h-3.6v1.63h2.92v1.5h-2.92v1.8h3.6v1.5h-5.18V1.66h5.18Z"/><path class="cls-1" d="m117.73,42.53c.12,0,.24,0,.36,0,1.66,0,3.32,0,4.98,0q.4,0,.4.39c0,.3,0,.6,0,.9,0,3.75.06,7.5-.02,11.25-.06,2.93-1.12,5.45-3.67,7.13-1.26.83-2.67,1.26-4.17,1.38-1.1.09-2.22.08-3.32.09-6.65.01-13.3.01-19.95.02-.07,0-.14,0-.21,0-.5.01-.49.01-.49-.48,0-5.36.02-10.72.02-16.08,0-11.18,0-22.36,0-33.54,0-.44,0-.88-.03-1.32-.02-.26.06-.34.33-.34,6.66,0,13.32,0,19.98,0,3.73,0,7.46,0,11.19,0,.28,0,.35.08.35.35,0,7.1.02,14.2-.02,21.3-.01,2.51-1.07,4.62-2.92,6.32-.86.79-1.74,1.56-2.61,2.34-.08.07-.18.12-.27.18.03.04.05.07.08.11Zm-12.27-23.89c0,.39,0,.74,0,1.09,0,6.28,0,12.56,0,18.84,0,.19.05.26.25.26.65-.01,1.3,0,1.95-.01.2,0,.4-.04.58-.11.89-.32,1.42-1.17,1.42-2.22,0-3.43,0-6.86-.01-10.29,0-2.42-.02-4.84-.02-7.26,0-.25-.07-.3-.31-.3-1.13.01-2.26,0-3.39,0-.14,0-.28,0-.47,0Zm0,38.29c.72,0,1.4,0,2.07,0,.77-.01,1.35-.37,1.73-1.04.28-.5.4-1.04.39-1.61-.01-2.91-.03-5.82-.04-8.72,0-.2-.05-.28-.27-.28-1.2,0-2.4,0-3.6,0-.23,0-.3.06-.3.3,0,3.57,0,7.14,0,10.7,0,.2,0,.4,0,.65Z"/><path class="cls-1" d="m62.26,49.92c.32,0,.63,0,.95,0,1.52,0,3.04,0,4.56,0,.25,0,.32.08.32.33,0,4.34,0,8.68,0,13.02,0,.45,0,.44-.44.43-.47-.01-.94-.02-1.41-.02-3.91,0-7.82,0-11.73,0-.08,0-.16,0-.27-.01v-10.93h-4.3c0,.22,0,.42,0,.62,0,3.35.02,6.7.03,10.05,0,.22-.05.29-.29.29-4.35,0-8.7-.01-13.05,0-.6,0-.5.02-.5-.54,0-16.61,0-33.21,0-49.82,0-.35,0-.7,0-1.05-.01-.24.05-.33.31-.33,10.15,0,20.3,0,30.45,0,.3,0,.6,0,.9,0,.18,0,.26.06.25.24,0,.24,0,.48,0,.72,0,9.16.01,18.32,0,27.48,0,2.8-1,5.19-3.13,7.06-.82.72-1.62,1.45-2.44,2.18-.08.07-.19.11-.29.16.03.05.07.1.1.15Zm-12.29-31.22v27.19c.86,0,1.69.02,2.52-.01.24,0,.5-.14.71-.28.54-.37.87-.9.91-1.55.07-.93.1-1.86.1-2.78,0-7.43,0-14.86,0-22.29,0-.25-.09-.28-.29-.28-.91,0-1.82,0-2.73,0-.4,0-.8,0-1.22,0Z"/><path class="cls-1" d="m18.21,18.72c-.13-.01-.24-.02-.34-.03-.49,0-.98.02-1.47,0-1.51-.06-2.21,1.05-2.35,2.11-.07.53-.11,1.08-.11,1.61,0,11.12,0,22.24,0,33.36,0,.29,0,.58.01.87,0,.08.1.22.15.22.72,0,1.45.06,2.16-.03,1.14-.15,1.82-.98,1.91-2.24.05-.75.04-1.5.04-2.25,0-1.94-.01-3.88-.03-5.82,0-.2.05-.28.27-.28,4.43,0,8.86,0,13.29,0,.23,0,.29.08.29.29,0,2.74.03,5.48-.02,8.22-.03,1.66-.35,3.27-1.18,4.75-1.08,1.93-2.75,3.1-4.84,3.71-1.34.39-2.71.45-4.09.45-4.3-.02-8.6,0-12.9,0-2.86,0-5.72,0-8.58.02-.25,0-.3-.09-.3-.32,0-8.31,0-16.62,0-24.93,0-5.52,0-11.04,0-16.56,0-1.43.1-2.86.56-4.23,1.02-3.02,3.16-4.79,6.24-5.4,1.08-.21,2.2-.29,3.31-.3,7.15-.03,14.3-.01,21.45-.02.27,0,.34.09.34.34,0,9.39,0,18.78-.01,28.17,0,.46,0,.92.01,1.38,0,.2-.05.28-.27.27-4.34,0-8.68-.01-13.02-.01-.56,0-.55,0-.55-.54,0-1.76.01-3.52.01-5.28,0-5.55,0-11.1,0-16.65,0-.29,0-.58,0-.89Z"/><path class="cls-1" d="m72.25,63.65V11.97c.13-.01.26-.03.39-.03,4.82,0,9.64,0,14.46,0,.21,0,.32.03.32.29-.02,4.12-.03,8.24-.03,12.36,0,12.57,0,25.14,0,37.71,0,.38,0,.76.03,1.14,0,.2-.07.26-.26.26-4.89,0-9.78,0-14.67-.01-.07,0-.14-.01-.23-.02Z"/><path class="cls-1" d="m127.45,63.67v-18.16c.13,0,.26-.02.39-.03,3.25,0,6.5,0,9.75,0,.29,0,.3.13.3.34,0,5.51-.01,11.02-.02,16.53,0,.36,0,.72.01,1.08,0,.2-.05.28-.27.28-3.27-.01-6.54-.02-9.81-.03-.11,0-.22,0-.35,0Z"/></svg>