<?xml version="1.0" encoding="UTF-8"?><svg id="Layer_1" xmlns="http://www.w3.org/2000/svg" viewBox="0 0 139.32 78.7"><defs><style>.cls-1,.cls-2{fill:#fff;}.cls-2{stroke:#fff;stroke-miterlimit:10;stroke-width:.25px;}</style></defs><g><path class="cls-1" d="m.5,16.6c0-6.34,3.89-10.58,10.73-10.58h23.69v32.69h-16.63V15.67h-.5c-.43,0-.65.65-.65,1.3v33.34h.5c.43,0,.65-.58.65-1.22v-9.22h16.63v9.58c0,6.34-3.89,10.58-10.8,10.58H.5V16.6Z"/><path class="cls-1" d="m52.63,49.22v10.8h-16.63V6.02h34.42v29.67c0,3.17-1.3,5.9-3.38,7.78h3.46v16.56h-16.63v-10.8h-1.22Zm.65-9.72c.29,0,.5-.5.5-1.01V15.67h-1.15v23.83h.65Z"/><path class="cls-1" d="m71.64,60.02V6.02h17.93v54h-17.93Z"/><path class="cls-1" d="m114.34,60.02h-23.62V6.02h34.42v22.39c0,3.17-1.3,5.9-3.38,7.78h3.38v13.25c0,6.34-3.89,10.58-10.8,10.58Zm-6.98-27.51h.5c.43,0,.65-.36.65-1.01v-15.91h-1.15v16.92Zm.5,17.86c.43,0,.65-.58.65-1.22v-7.27h-1.15v8.5h.5Z"/><path class="cls-1" d="m126.07,39.07h13.25v20.95h-13.25v-20.95Z"/></g><g><path class="cls-2" d="m69.5,63.49v12.24h-2.63l-4.5-8.35v8.35h-2.29v-12.24h2.63l4.5,8.35v-8.35h2.29Z"/><path class="cls-2" d="m80.19,63.49v2.31h-5.56v2.52h4.5v2.31h-4.5v2.79h5.56v2.31h-8.01v-12.24h8.01Z"/><path class="cls-2" d="m87.08,65.77v9.96h-2.45v-9.96h-3.2v-2.28h8.84v2.28h-3.2Z"/><path class="cls-2" d="m100.47,75.73l-2.01-8.06-2.01,8.06h-2.41l-3.04-12.24h2.62l1.67,8.94,2.21-8.94h1.94l2.21,8.94,1.67-8.94h2.52l-3.04,12.24h-2.31Z"/><path class="cls-2" d="m113.5,63.42c1.43,0,2.41.99,2.41,2.41v7.55c0,1.43-.99,2.41-2.41,2.41h-4.1c-1.43,0-2.41-.99-2.41-2.41v-7.55c0-1.43.99-2.41,2.41-2.41h4.1Zm-.03,2.89c0-.37-.2-.58-.58-.58h-2.87c-.37,0-.58.2-.58.58v6.6c0,.37.2.58.58.58h2.87c.37,0,.58-.2.58-.58v-6.6Z"/><path class="cls-2" d="m124.7,75.73l-1.97-4.54h-1.97v4.54h-2.45v-12.24h6.24c1.43,0,2.41.99,2.41,2.41v2.87c0,1.16-.65,2.02-1.67,2.31l2.04,4.64h-2.63Zm-.19-9.35c0-.37-.2-.58-.58-.58h-3.18v3.11h3.18c.37,0,.58-.2.58-.58v-1.96Z"/><path class="cls-2" d="m131.77,72.6v3.13h-2.41v-12.24h2.41v5.75l4.23-5.75h2.87l-3.76,4.83,3.94,7.41h-2.75l-2.82-5.32-1.72,2.19Z"/></g></svg>